<svg viewBox="0 0 152 224" fill="none" xmlns="http://www.w3.org/2000/svg"><path clip-rule="evenodd" d="M0 0h8v8H0V0zm24 0h8v8h-8V0zm32 0h-8v8h8V0zm16 0h8v8h-8V0zm32 0h-8v8h8V0zm16 0h8v8h-8V0zm32 0h-8v8h8V0zM0 24h8v8H0v-8zm24 0h8v8h-8v-8zm32 0h-8v8h8v-8zm16 0h8v8h-8v-8zm32 0h-8v8h8v-8zm16 0h8v8h-8v-8zm32 0h-8v8h8v-8zM0 48h8v8H0v-8zm24 0h8v8h-8v-8zm32 0h-8v8h8v-8zm16 0h8v8h-8v-8zm32 0h-8v8h8v-8zm16 0h8v8h-8v-8zm32 0h-8v8h8v-8zM0 72h8v8H0v-8zm24 0h8v8h-8v-8zm32 0h-8v8h8v-8zm16 0h8v8h-8v-8zm32 0h-8v8h8v-8zm16 0h8v8h-8v-8zm32 0h-8v8h8v-8zM0 96h8v8H0v-8zm24 0h8v8h-8v-8zm32 0h-8v8h8v-8zm16 0h8v8h-8v-8zm32 0h-8v8h8v-8zm16 0h8v8h-8v-8zm32 0h-8v8h8v-8zM0 120h8v8H0v-8zm24 0h8v8h-8v-8zm32 0h-8v8h8v-8zm16 0h8v8h-8v-8zm32 0h-8v8h8v-8zm16 0h8v8h-8v-8zm32 0h-8v8h8v-8zM0 144h8v8H0v-8zm24 0h8v8h-8v-8zm32 0h-8v8h8v-8zm16 0h8v8h-8v-8zm32 0h-8v8h8v-8zm16 0h8v8h-8v-8zm32 0h-8v8h8v-8zM0 168h8v8H0v-8zm24 0h8v8h-8v-8zm32 0h-8v8h8v-8zm16 0h8v8h-8v-8zm32 0h-8v8h8v-8zm16 0h8v8h-8v-8zm32 0h-8v8h8v-8zM0 192h8v8H0v-8zm24 0h8v8h-8v-8zm32 0h-8v8h8v-8zm16 0h8v8h-8v-8zm32 0h-8v8h8v-8zm16 0h8v8h-8v-8zm32 0h-8v8h8v-8zM0 216h8v8H0v-8zm24 0h8v8h-8v-8zm32 0h-8v8h8v-8zm16 0h8v8h-8v-8zm32 0h-8v8h8v-8zm16 0h8v8h-8v-8zm32 0h-8v8h8v-8z"/></svg>