<svg viewBox="0 0 344 344" fill="none" xmlns="http://www.w3.org/2000/svg"><g clip-path="url(#prefix__clip0_1_472)"><path clip-rule="evenodd" d="M0 0h8v8H0V0zm24 0h8v8h-8V0zm32 0h-8v8h8V0zm16 0h8v8h-8V0zm32 0h-8v8h8V0zm16 0h8v8h-8V0zm32 0h-8v8h8V0zm16 0h8v8h-8V0zm32 0h-8v8h8V0zm16 0h8v8h-8V0zm32 0h-8v8h8V0zm16 0h8v8h-8V0zm32 0h-8v8h8V0zm16 0h8v8h-8V0zm32 0h-8v8h8V0zM0 24h8v8H0v-8zm24 0h8v8h-8v-8zm32 0h-8v8h8v-8zm16 0h8v8h-8v-8zm32 0h-8v8h8v-8zm16 0h8v8h-8v-8zm32 0h-8v8h8v-8zm16 0h8v8h-8v-8zm32 0h-8v8h8v-8zm16 0h8v8h-8v-8zm32 0h-8v8h8v-8zm16 0h8v8h-8v-8zm32 0h-8v8h8v-8zm16 0h8v8h-8v-8zm32 0h-8v8h8v-8zM8 48H0v8h8v-8zm24 0h-8v8h8v-8zm16 0h8v8h-8v-8zm32 0h-8v8h8v-8zm16 0h8v8h-8v-8zm32 0h-8v8h8v-8zm16 0h8v8h-8v-8zm32 0h-8v8h8v-8zm16 0h8v8h-8v-8zm32 0h-8v8h8v-8zm16 0h8v8h-8v-8zm32 0h-8v8h8v-8zm16 0h8v8h-8v-8zm32 0h-8v8h8v-8zm16 0h8v8h-8v-8zM0 72h8v8H0v-8zm24 0h8v8h-8v-8zm32 0h-8v8h8v-8zm16 0h8v8h-8v-8zm32 0h-8v8h8v-8zm16 0h8v8h-8v-8zm32 0h-8v8h8v-8zm16 0h8v8h-8v-8zm32 0h-8v8h8v-8zm16 0h8v8h-8v-8zm32 0h-8v8h8v-8zm16 0h8v8h-8v-8zm32 0h-8v8h8v-8zm16 0h8v8h-8v-8zm32 0h-8v8h8v-8zM8 96H0v8h8v-8zm24 0h-8v8h8v-8zm16 0h8v8h-8v-8zm32 0h-8v8h8v-8zm16 0h8v8h-8v-8zm32 0h-8v8h8v-8zm16 0h8v8h-8v-8zm32 0h-8v8h8v-8zm16 0h8v8h-8v-8zm32 0h-8v8h8v-8zm16 0h8v8h-8v-8zm32 0h-8v8h8v-8zm16 0h8v8h-8v-8zm32 0h-8v8h8v-8zm16 0h8v8h-8v-8zM0 120h8v8H0v-8zm24 0h8v8h-8v-8zm32 0h-8v8h8v-8zm16 0h8v8h-8v-8zm32 0h-8v8h8v-8zm16 0h8v8h-8v-8zm32 0h-8v8h8v-8zm16 0h8v8h-8v-8zm32 0h-8v8h8v-8zm16 0h8v8h-8v-8zm32 0h-8v8h8v-8zm16 0h8v8h-8v-8zm32 0h-8v8h8v-8zm16 0h8v8h-8v-8zm32 0h-8v8h8v-8zM8 144H0v8h8v-8zm24 0h-8v8h8v-8zm16 0h8v8h-8v-8zm32 0h-8v8h8v-8zm16 0h8v8h-8v-8zm32 0h-8v8h8v-8zm16 0h8v8h-8v-8zm32 0h-8v8h8v-8zm16 0h8v8h-8v-8zm32 0h-8v8h8v-8zm16 0h8v8h-8v-8zm32 0h-8v8h8v-8zm16 0h8v8h-8v-8zm32 0h-8v8h8v-8zm16 0h8v8h-8v-8zM0 168h8v8H0v-8zm24 0h8v8h-8v-8zm32 0h-8v8h8v-8zm16 0h8v8h-8v-8zm32 0h-8v8h8v-8zm16 0h8v8h-8v-8zm32 0h-8v8h8v-8zm16 0h8v8h-8v-8zm32 0h-8v8h8v-8zm16 0h8v8h-8v-8zm32 0h-8v8h8v-8zm16 0h8v8h-8v-8zm32 0h-8v8h8v-8zm16 0h8v8h-8v-8zm32 0h-8v8h8v-8zM8 192H0v8h8v-8zm24 0h-8v8h8v-8zm16 0h8v8h-8v-8zm32 0h-8v8h8v-8zm16 0h8v8h-8v-8zm32 0h-8v8h8v-8zm16 0h8v8h-8v-8zm32 0h-8v8h8v-8zm16 0h8v8h-8v-8zm32 0h-8v8h8v-8zm16 0h8v8h-8v-8zm32 0h-8v8h8v-8zm16 0h8v8h-8v-8zm32 0h-8v8h8v-8zm16 0h8v8h-8v-8zM0 216h8v8H0v-8zm24 0h8v8h-8v-8zm32 0h-8v8h8v-8zm16 0h8v8h-8v-8zm32 0h-8v8h8v-8zm16 0h8v8h-8v-8zm32 0h-8v8h8v-8zm16 0h8v8h-8v-8zm32 0h-8v8h8v-8zm16 0h8v8h-8v-8zm32 0h-8v8h8v-8zm16 0h8v8h-8v-8zm32 0h-8v8h8v-8zm16 0h8v8h-8v-8zm32 0h-8v8h8v-8zM8 240H0v8h8v-8zm24 0h-8v8h8v-8zm16 0h8v8h-8v-8zm32 0h-8v8h8v-8zm16 0h8v8h-8v-8zm32 0h-8v8h8v-8zm16 0h8v8h-8v-8zm32 0h-8v8h8v-8zm16 0h8v8h-8v-8zm32 0h-8v8h8v-8zm16 0h8v8h-8v-8zm32 0h-8v8h8v-8zm16 0h8v8h-8v-8zm32 0h-8v8h8v-8zm16 0h8v8h-8v-8zM0 264h8v8H0v-8zm24 0h8v8h-8v-8zm32 0h-8v8h8v-8zm16 0h8v8h-8v-8zm32 0h-8v8h8v-8zm16 0h8v8h-8v-8zm32 0h-8v8h8v-8zm16 0h8v8h-8v-8zm32 0h-8v8h8v-8zm16 0h8v8h-8v-8zm32 0h-8v8h8v-8zm16 0h8v8h-8v-8zm32 0h-8v8h8v-8zm16 0h8v8h-8v-8zm32 0h-8v8h8v-8zM8 288H0v8h8v-8zm24 0h-8v8h8v-8zm16 0h8v8h-8v-8zm32 0h-8v8h8v-8zm16 0h8v8h-8v-8zm32 0h-8v8h8v-8zm16 0h8v8h-8v-8zm32 0h-8v8h8v-8zm16 0h8v8h-8v-8zm32 0h-8v8h8v-8zm16 0h8v8h-8v-8zm32 0h-8v8h8v-8zm16 0h8v8h-8v-8zm32 0h-8v8h8v-8zm16 0h8v8h-8v-8zM0 312h8v8H0v-8zm24 0h8v8h-8v-8zm32 0h-8v8h8v-8zm16 0h8v8h-8v-8zm32 0h-8v8h8v-8zm16 0h8v8h-8v-8zm32 0h-8v8h8v-8zm16 0h8v8h-8v-8zm32 0h-8v8h8v-8zm16 0h8v8h-8v-8zm32 0h-8v8h8v-8zm16 0h8v8h-8v-8zm32 0h-8v8h8v-8zm16 0h8v8h-8v-8zm32 0h-8v8h8v-8zM8 336H0v8h8v-8zm24 0h-8v8h8v-8zm16 0h8v8h-8v-8zm32 0h-8v8h8v-8zm16 0h8v8h-8v-8zm32 0h-8v8h8v-8zm16 0h8v8h-8v-8zm32 0h-8v8h8v-8zm16 0h8v8h-8v-8zm32 0h-8v8h8v-8zm16 0h8v8h-8v-8zm32 0h-8v8h8v-8zm16 0h8v8h-8v-8zm32 0h-8v8h8v-8zm16 0h8v8h-8v-8z"/></g></svg>