<svg width="30" height="30" viewBox="0 0 30 30" fill="none" xmlns="http://www.w3.org/2000/svg">
<rect width="30" height="30" fill="url(#paint0_linear_433_17990)"/>
<path fill-rule="evenodd" clip-rule="evenodd" d="M5 8.5V21.3184H10.736C11.6805 21.3184 12.4835 21.1641 13.1452 20.8554C13.8067 20.5424 14.3124 20.1168 14.6619 19.5785C15.0114 19.0361 15.186 18.4205 15.186 17.732C15.186 17.1145 15.053 16.5803 14.7865 16.1298C14.5203 15.6749 14.1667 15.3201 13.7256 15.0656C13.2888 14.8111 12.8122 14.6715 12.2962 14.6463V14.5213C12.5301 14.4714 12.75 14.403 12.956 14.316C13.1643 14.2283 13.3585 14.1213 13.5382 13.9955C13.8961 13.745 14.177 13.43 14.381 13.0503C14.5651 12.7037 14.6659 12.3147 14.684 11.8831C14.6859 11.8366 14.6868 11.7897 14.6868 11.7422C14.6868 11.3994 14.64 11.0786 14.5465 10.7798C14.4647 10.5184 14.3471 10.2737 14.1937 10.0459C14.0382 9.81179 13.8453 9.60266 13.6151 9.41849C13.3651 9.21861 13.0712 9.04821 12.7333 8.90686C12.0883 8.63555 11.2872 8.5 10.3303 8.5H5ZM9.99945 18.8211H8.08953V15.7668H10.0557C10.2827 15.7668 10.4912 15.7888 10.6811 15.8326C10.8218 15.8653 10.9525 15.9101 11.0729 15.9669C11.3558 16.0964 11.5743 16.2821 11.7283 16.5241C11.827 16.6767 11.8941 16.8482 11.9296 17.0384C11.9493 17.1449 11.9592 17.2572 11.9592 17.3753C11.9592 17.8301 11.7991 18.1847 11.4786 18.4392C11.1623 18.6938 10.6693 18.8211 9.99945 18.8211ZM9.7997 13.7702H8.08953V10.9599H9.8497C10.3657 10.9599 10.7755 11.0829 11.0791 11.3291C11.3829 11.5752 11.5348 11.9132 11.5348 12.3431C11.5348 12.6434 11.4599 12.9001 11.3101 13.1129C11.1645 13.3257 10.9606 13.4883 10.6985 13.6011C10.4363 13.7138 10.1368 13.7702 9.7997 13.7702ZM17.8535 20.9053C18.5817 21.3018 19.4472 21.5 20.45 21.5C21.2863 21.5 22.0227 21.3727 22.6594 21.1181C23.1038 20.9376 23.4883 20.7072 23.8129 20.4271C23.9534 20.3059 24.0828 20.1753 24.201 20.0355C24.5962 19.5682 24.8835 18.938 25 18.3078H22.1662C22.0873 18.5208 21.9686 18.7002 21.8105 18.8461C21.6523 18.9922 21.4631 19.1028 21.2426 19.1779C21.022 19.2529 20.7766 19.2906 20.506 19.2906C20.2572 19.2906 20.0303 19.2577 19.8252 19.1918C19.7079 19.1542 19.5978 19.1055 19.4951 19.0464C19.212 18.8837 18.9937 18.6563 18.8396 18.3641C18.6856 18.0679 18.6087 17.7236 18.6087 17.3314V17.2501H25V16.4865C25 15.6979 24.8854 14.9989 24.6567 14.3898C24.4278 13.7764 24.1075 13.2609 23.6956 12.8437C23.2836 12.4266 22.7946 12.1114 22.2287 11.8986C21.6629 11.6858 21.0388 11.5795 20.3562 11.5795C19.391 11.5795 18.5525 11.788 17.8411 12.2054C17.1294 12.6185 16.578 13.1985 16.1869 13.9453C15.7958 14.6881 15.6003 15.556 15.6003 16.5491C15.6003 17.5713 15.7938 18.4538 16.1807 19.1966C16.5718 19.9352 17.1294 20.5047 17.8535 20.9053ZM18.6107 15.4725C18.6184 15.3135 18.6439 15.1631 18.6873 15.0211C18.7283 14.8866 18.7853 14.7595 18.8583 14.6401C18.9235 14.5316 18.9981 14.4329 19.0825 14.3436C19.2026 14.2164 19.3423 14.1086 19.5013 14.0204C19.7716 13.8661 20.0776 13.7889 20.4187 13.7889C20.7557 13.7889 21.0534 13.8619 21.3112 14.0079C21.5734 14.1497 21.7794 14.3481 21.9291 14.6026C22.0789 14.8571 22.1559 15.1472 22.16 15.4725H18.6107ZM23.0154 9.38127H17.7426V11.1438H23.0154V9.38127Z" fill="white"/>
<defs>
<linearGradient id="paint0_linear_433_17990" x1="30" y1="0" x2="0" y2="30" gradientUnits="userSpaceOnUse">
<stop stop-color="#4577FF"/>
<stop offset="1" stop-color="#3568F4"/>
</linearGradient>
</defs>
</svg>
