<svg width="30" height="30" viewBox="0 0 30 30" fill="none" xmlns="http://www.w3.org/2000/svg">
<rect width="30" height="30" fill="url(#paint0_linear_433_18046)"/>
<path d="M6.875 8C5.83984 8 5 8.78385 5 9.75C5 10.3005 5.27734 10.8182 5.75 11.15L14.25 17.1C14.6953 17.4099 15.3047 17.4099 15.75 17.1L24.25 11.15C24.7227 10.8182 25 10.3005 25 9.75C25 8.78385 24.1602 8 23.125 8H6.875ZM5 12.0833V19.6667C5 20.9536 6.12109 22 7.5 22H22.5C23.8789 22 25 20.9536 25 19.6667V12.0833L16.5 18.0333C15.6094 18.6568 14.3906 18.6568 13.5 18.0333L5 12.0833Z" fill="white"/>
<defs>
<linearGradient id="paint0_linear_433_18046" x1="30" y1="8.9407e-07" x2="1.15782e-06" y2="31.5" gradientUnits="userSpaceOnUse">
<stop stop-color="#1FACFB"/>
<stop offset="1" stop-color="#0E9BEA"/>
</linearGradient>
</defs>
</svg>
