<svg width="30" height="30" viewBox="0 0 30 30" fill="none" xmlns="http://www.w3.org/2000/svg">
<rect width="30" height="30" fill="url(#paint0_linear_433_17980)"/>
<path fill-rule="evenodd" clip-rule="evenodd" d="M5 10C5 7.23857 7.23858 5 10 5H20.0018C22.7632 5 25.0018 7.23858 25.0018 10V20.0018C25.0018 22.7632 22.7632 25.0018 20.0018 25.0018H10C7.23857 25.0018 5 22.7632 5 20.0018V10ZM10 7C8.34314 7 7 8.34314 7 10V20.0018C7 21.6587 8.34314 23.0018 10 23.0018H20.0018C21.6587 23.0018 23.0018 21.6587 23.0018 20.0018V10C23.0018 8.34314 21.6587 7 20.0018 7H10ZM15.0017 12.4005C13.5656 12.4005 12.4014 13.5648 12.4014 15.0009C12.4014 16.437 13.5656 17.6013 15.0017 17.6013C16.4379 17.6013 17.6021 16.437 17.6021 15.0009C17.6021 13.5648 16.4379 12.4005 15.0017 12.4005ZM10.4014 15.0009C10.4014 12.4602 12.461 10.4005 15.0017 10.4005C17.5425 10.4005 19.6021 12.4602 19.6021 15.0009C19.6021 17.5416 17.5425 19.6012 15.0017 19.6012C12.461 19.6012 10.4014 17.5416 10.4014 15.0009ZM20.4016 10.5004C20.8987 10.5004 21.3017 10.0975 21.3017 9.60036C21.3017 9.10325 20.8987 8.70027 20.4016 8.70027C19.9045 8.70027 19.5015 9.10325 19.5015 9.60036C19.5015 10.0975 19.9045 10.5004 20.4016 10.5004Z" fill="white"/>
<defs>
<linearGradient id="paint0_linear_433_17980" x1="30" y1="0" x2="0" y2="30" gradientUnits="userSpaceOnUse">
<stop stop-color="#6E39A2"/>
<stop offset="0.734375" stop-color="#DA3128"/>
<stop offset="0.9375" stop-color="#E6CD48"/>
<stop offset="1" stop-color="#E6CD48"/>
</linearGradient>
</defs>
</svg>
