<svg width="30" height="30" viewBox="0 0 30 30" fill="none" xmlns="http://www.w3.org/2000/svg">
<rect width="30" height="30" fill="url(#paint0_linear_433_17972)"/>
<path fill-rule="evenodd" clip-rule="evenodd" d="M25 13.5003C25 15.8096 23.9165 17.904 22.1583 19.4358C21.7019 19.8931 20.245 21.3217 18.903 22.3015C17.7317 23.1572 15.7111 24.3552 14.6883 24.9497C14.4211 25.1049 14.1003 24.88 14.1333 24.562L14.2954 22.9923C14.2954 22.9923 14.3068 22.514 14.1962 22.3208C14.0976 22.1491 13.7203 21.9615 13.6385 21.9224C8.75934 21.358 5 17.8026 5 13.5003C5 8.8057 9.47696 5 15 5C20.523 5 25 8.8057 25 13.5003ZM8.51545 11.2052C8.36586 11.2052 8.24445 11.3322 8.24445 11.4886V15.945C8.24445 16.1014 8.36586 16.2283 8.51545 16.2283H11.2173C11.3675 16.2283 11.4883 16.1014 11.4883 15.945V15.3239C11.4883 15.1675 11.3675 15.0406 11.2173 15.0406H9.37615V11.4886C9.37615 11.3322 9.25474 11.2052 9.10515 11.2052H8.51545ZM18.9295 11.2336C18.7799 11.2336 18.6585 11.3605 18.6585 11.5169V15.9733C18.6585 16.1297 18.7799 16.2567 18.9295 16.2567H21.6314C21.781 16.2567 21.9024 16.1297 21.9024 15.9733V15.3522C21.9024 15.1958 21.781 15.0689 21.6314 15.0689H19.7902V14.275H21.6314C21.781 14.275 21.9024 14.148 21.9024 13.9916V13.3711C21.9024 13.2147 21.781 13.0878 21.6314 13.0878H19.7902V12.3998H21.6314C21.781 12.3998 21.9024 12.2734 21.9024 12.117V11.5169C21.9024 11.3605 21.781 11.2336 21.6314 11.2336H18.9295ZM13.8347 11.5169C13.8347 11.3605 13.9561 11.2336 14.1057 11.2336H14.7323C14.8222 11.2336 14.9068 11.2806 14.9572 11.3588L16.8802 14.3503V11.5169C16.8802 11.3605 17.0016 11.2336 17.1512 11.2336H17.7328C17.8824 11.2336 18.0038 11.3605 18.0038 11.5169V15.9733C18.0038 16.1297 17.8824 16.2567 17.7328 16.2567H17.0201C16.9323 16.2567 16.8499 16.2119 16.7989 16.1371L14.8764 13.3042V15.9733C14.8764 16.1297 14.755 16.2567 14.6054 16.2567H14.1057C13.9561 16.2567 13.8347 16.1297 13.8347 15.9733V11.5169ZM12.3171 11.2336C12.1675 11.2336 12.0461 11.3605 12.0461 11.5169V15.9733C12.0461 16.1297 12.1675 16.2567 12.3171 16.2567H12.9068C13.0564 16.2567 13.1778 16.1297 13.1778 15.9733V11.5169C13.1778 11.3605 13.0564 11.2336 12.9068 11.2336H12.3171Z" fill="white"/>
<defs>
<linearGradient id="paint0_linear_433_17972" x1="30" y1="0" x2="0" y2="30" gradientUnits="userSpaceOnUse">
<stop stop-color="#38C82A"/>
<stop offset="1" stop-color="#27B719"/>
</linearGradient>
</defs>
</svg>
