<svg width="30" height="30" viewBox="0 0 30 30" fill="none" xmlns="http://www.w3.org/2000/svg">
<rect width="30" height="30" fill="url(#paint0_linear_433_17985)"/>
<path fill-rule="evenodd" clip-rule="evenodd" d="M8.42673 10.8657C9.76697 10.8657 10.8535 9.77648 10.8535 8.43286C10.8535 7.08923 9.76697 6 8.42673 6C7.08648 6 6 7.08923 6 8.43286C6 9.77648 7.08648 10.8657 8.42673 10.8657ZM6.45177 23.0002C6.45177 23.5525 6.89948 24.0002 7.45177 24.0002H9.38486C9.93714 24.0002 10.3849 23.5525 10.3849 23.0002V12.6148C10.3849 12.0625 9.93714 11.6148 9.38486 11.6148H7.45177C6.89948 11.6148 6.45177 12.0625 6.45177 12.6148V23.0002ZM16.0124 23.0002V16.9367C16.0178 16.4635 16.1036 16.0604 16.2698 15.7271C16.4414 15.3938 16.6827 15.1384 16.9937 14.9611C17.3101 14.7783 17.6747 14.6869 18.0876 14.6869C18.7096 14.6869 19.1948 14.8805 19.5434 15.2675C19.8973 15.6545 20.0715 16.1921 20.0662 16.8802V23.0002C20.0662 23.5525 20.5139 24.0002 21.0662 24.0002H22.9993C23.5516 24.0002 23.9993 23.5525 23.9993 23.0002V16.1061C24.0046 15.1761 23.8277 14.3644 23.4685 13.6709C23.1146 12.9721 22.6159 12.4292 21.9724 12.0421C21.3343 11.6497 20.581 11.4535 19.7123 11.4535C18.8007 11.4535 18.0152 11.6712 17.3557 12.1066C16.6961 12.5367 16.2296 13.1307 15.9561 13.8886H15.8194V12.6148C15.8194 12.0625 15.3717 11.6148 14.8194 11.6148H13.0794C12.5271 11.6148 12.0794 12.0625 12.0794 12.6148V23.0002C12.0794 23.5525 12.5271 24.0002 13.0794 24.0002H15.0124C15.5647 24.0002 16.0124 23.5525 16.0124 23.0002Z" fill="white"/>
<defs>
<linearGradient id="paint0_linear_433_17985" x1="30" y1="0" x2="0" y2="30" gradientUnits="userSpaceOnUse">
<stop stop-color="#508DC5"/>
<stop offset="1" stop-color="#3171AC"/>
</linearGradient>
</defs>
</svg>
