<svg width="32" height="32" viewBox="0 0 32 32" fill="none" xmlns="http://www.w3.org/2000/svg">
<rect width="32" height="32" fill="url(#paint0_linear_261_17977)"/>
<path d="M25.742 16.0387C27.8608 13.92 27.8608 10.4887 25.742 8.37C23.867 6.495 20.912 6.25125 18.7558 7.7925L18.6958 7.83375C18.1558 8.22 18.032 8.97 18.4183 9.50625C18.8045 10.0425 19.5545 10.17 20.0908 9.78375L20.1508 9.7425C21.3545 8.88375 23.0008 9.01875 24.0433 10.065C25.2245 11.2462 25.2245 13.1587 24.0433 14.34L19.8358 18.555C18.6545 19.7362 16.742 19.7362 15.5608 18.555C14.5145 17.5087 14.3795 15.8625 15.2383 14.6625L15.2795 14.6025C15.6658 14.0625 15.5383 13.3125 15.002 12.93C14.4658 12.5475 13.712 12.6712 13.3295 13.2075L13.2883 13.2675C11.7433 15.42 11.987 18.375 13.862 20.25C15.9808 22.3687 19.412 22.3687 21.5308 20.25L25.742 16.0387ZM6.25703 15.1612C4.13828 17.28 4.13828 20.7112 6.25703 22.83C8.13203 24.705 11.087 24.9487 13.2433 23.4075L13.3033 23.3662C13.8433 22.98 13.967 22.23 13.5808 21.6937C13.1945 21.1575 12.4445 21.03 11.9083 21.4162L11.8483 21.4575C10.6445 22.3162 8.99828 22.1812 7.95578 21.135C6.77453 19.95 6.77453 18.0375 7.95578 16.8562L12.1633 12.645C13.3445 11.4637 15.257 11.4637 16.4383 12.645C17.4845 13.6912 17.6195 15.3375 16.7608 16.5412L16.7195 16.6012C16.3333 17.1412 16.4608 17.8912 16.997 18.2737C17.5333 18.6562 18.287 18.5325 18.6695 17.9962L18.7108 17.9362C20.2558 15.78 20.012 12.825 18.137 10.95C16.0183 8.83125 12.587 8.83125 10.4683 10.95L6.25703 15.1612Z" fill="white"/>
<defs>
<linearGradient id="paint0_linear_261_17977" x1="32" y1="0" x2="0" y2="32" gradientUnits="userSpaceOnUse">
<stop stop-color="#A0A0A0"/>
<stop offset="1" stop-color="#727272"/>
</linearGradient>
</defs>
</svg>
