<svg width="30" height="30" viewBox="0 0 30 30" fill="none" xmlns="http://www.w3.org/2000/svg">
<rect width="30" height="30" fill="url(#paint0_linear_433_17970)"/>
<path d="M11.797 6.8656C11.5263 6.21172 10.8127 5.86369 10.1307 6.05001L7.03706 6.89372C6.42537 7.06246 6 7.61791 6 8.25069C6 16.948 13.052 24 21.7493 24C22.3821 24 22.9375 23.5746 23.1063 22.9629L23.95 19.8693C24.1363 19.1873 23.7883 18.4737 23.1344 18.203L19.7596 16.7968C19.1865 16.5578 18.5221 16.723 18.1319 17.2046L16.7116 18.9377C14.2367 17.7671 12.2329 15.7633 11.0623 13.2884L12.7954 11.8716C13.277 11.4779 13.4423 10.817 13.2032 10.244L11.797 6.86911V6.8656Z" fill="white"/>
<defs>
<linearGradient id="paint0_linear_433_17970" x1="30" y1="0" x2="0" y2="30" gradientUnits="userSpaceOnUse">
<stop stop-color="#50B288"/>
<stop offset="1" stop-color="#40A177"/>
</linearGradient>
</defs>
</svg>
