<svg width="30" height="30" viewBox="0 0 30 30" fill="none" xmlns="http://www.w3.org/2000/svg">
<rect width="30" height="30" fill="url(#paint0_linear_433_17976)"/>
<path fill-rule="evenodd" clip-rule="evenodd" d="M8.4973 20.8657L8.71406 20.0245L8.24722 19.2919C7.4577 18.0529 7 16.5829 7 15C7 10.5817 10.5817 7 15 7C19.4183 7 23 10.5817 23 15C23 19.4183 19.4183 23 15 23C13.5505 23 12.1967 22.6163 11.0281 21.9463L10.2987 21.5281L9.4895 21.7567L8.17176 22.1291L8.4973 20.8657ZM5.36667 25L7.59418 24.3706L10.0333 23.6814C11.4966 24.5203 13.1923 25 15 25C20.5228 25 25 20.5228 25 15C25 9.47715 20.5228 5 15 5C9.47715 5 5 9.47715 5 15C5 16.9749 5.57249 18.8161 6.56056 20.3667L5.94425 22.7585L5.36667 25ZM12.5807 15.1405L12.0083 14.1984L12.8686 13.2234C13.0996 12.948 12.6966 11.9332 12.4958 11.4742L12.0083 10.3271C11.7788 10.0404 11.0332 9.86841 10.7464 10.1265L10.1812 10.5437C9.75626 10.8574 9.36707 11.293 9.23726 11.805C9.1172 12.2786 9.15976 12.7257 9.3041 13.1924L9.4081 13.5286C9.76146 14.6712 10.3389 15.7319 11.1067 16.6489L11.5422 17.169C11.8517 17.5386 12.2066 17.8678 12.5984 18.1487L13.5469 18.8285C13.9721 19.1332 14.4369 19.3783 14.9286 19.557L15.4344 19.7409C15.7877 19.8693 16.153 19.9618 16.5247 20.0171L17.3328 20.1372C17.8265 20.2107 18.3308 20.1461 18.79 19.9507L18.8339 19.932C19.2285 19.7641 19.5737 19.4983 19.837 19.1598C19.9918 18.9754 20.0627 18.3827 20.01 17.942C19.9694 17.602 19.6875 17.3823 19.3902 17.2125L18.4319 16.6648C18.1565 16.4338 17.4011 16.2748 17.1701 16.5501L16.0517 17.7257L14.7845 17.1261C13.8715 16.6942 13.1052 16.0037 12.5807 15.1405Z" fill="white"/>
<defs>
<linearGradient id="paint0_linear_433_17976" x1="30" y1="0" x2="0" y2="30" gradientUnits="userSpaceOnUse">
<stop stop-color="#65DB7D"/>
<stop offset="1" stop-color="#54CA6C"/>
</linearGradient>
</defs>
</svg>
