<svg  width="1418" height="1707" viewBox="0 0 1418 1707" fill="none" xmlns="http://www.w3.org/2000/svg">
<path d="M1034.67 1.33324C1016.53 4.39991 1007.73 7.46658 982.266 19.4666C888.133 64.1332 793.466 106.133 792.8 103.6C792.533 102.667 791.6 99.3332 790.666 95.9999C785.733 77.8666 773.6 63.8666 764 65.3332C762.933 65.4666 716.266 87.9999 660.4 115.467C604.4 142.933 555.733 165.867 552.266 166.667C548.8 167.467 542 169.067 537.2 170.133C532.4 171.333 526.4 172 523.866 171.733L519.333 171.333L527.333 167.067C531.733 164.8 545.2 157.333 557.333 150.533C569.466 143.733 602.133 126.667 630 112.533C657.866 98.2666 680.266 86.6666 679.6 86.6666C679.066 86.6666 649.733 95.7332 614.266 106.8C552.133 126.267 517.2 137.067 388 177.333L327.333 196.267L291.333 215.6C271.6 226.267 250.8 237.467 245.333 240.4C239.866 243.333 228.8 249.2 220.666 253.333C190.133 269.067 172.8 278.667 169.466 281.733C167.6 283.467 163.2 286.8 159.866 289.067C153.733 293.2 142.4 306.667 139.6 313.333C138.8 315.2 136.4 318.667 134.4 321.067C127.066 329.6 130.533 345.333 142.4 358.8C151.466 368.933 154.133 369.6 194.666 370.8C228.133 371.733 231.066 371.6 248.933 368.667C269.066 365.333 315.333 353.867 326.133 349.467C342 343.2 373.466 327.067 382.666 320.8C396.933 310.8 396.933 310.8 390.666 319.467C376 339.6 367.333 349.6 354.933 361.067C343.066 371.867 340 374 328.8 378.667C288.533 395.467 221.066 428.667 142 470.667C115.6 484.8 79.8664 503.467 62.6664 512.267L31.3331 528.267L22.2664 539.067C5.73305 559.067 -1.60028 579.867 0.399718 601.2C2.26638 622 18.3997 639.333 42.1331 646.133C48.7997 648.133 58.1331 648.533 104 649.067C153.066 649.467 172.4 648.8 192 645.867C197.6 645.067 190.8 648.133 152 664.267C111.733 680.933 75.8664 694 52.9331 700.133L42.6664 702.933L40.1331 699.867C38.1331 697.333 36.3997 696.667 31.4664 696.8C25.0664 696.933 18.1331 700.4 19.0664 703.067C19.5997 704.667 30.1331 705.2 37.9997 704L41.9997 703.333L41.7331 711.467C41.5997 717.2 40.2664 722.8 37.3331 730.133C33.7331 739.2 33.1997 741.867 33.7331 749.333C34.7997 767.333 43.0664 780.133 61.7331 793.067C74.5331 801.867 125.866 827.333 134.933 829.333C138.8 830.133 150.133 831.2 160 831.6C176.933 832.267 178.533 832.133 188 828.933C193.466 826.933 208.4 823.067 221.2 820C241.066 815.467 256.8 811.2 265.2 808.4C266.4 808 263.733 810.133 259.333 813.067C254.933 816.133 245.6 822.533 238.666 827.333C231.733 832.133 217.6 841.733 207.2 848.667C196.8 855.6 187.6 862.133 186.666 863.333C185.733 864.4 184 865.333 182.8 865.333C181.6 865.333 174.933 871.333 168 878.667C161.066 886 154.666 892 153.866 892C152.666 892 116.666 929.733 100.933 947.6C93.4664 956.133 85.1997 968.4 82.5331 974.667C79.1997 983.067 80.1331 994.267 85.0664 1004.4C93.1997 1020.8 99.0664 1025.33 115.6 1027.87C129.066 1030 136.133 1029.73 152.8 1026.67C183.2 1021.2 205.466 1013.2 242.666 994.667C298.666 966.667 390.266 926.267 486.933 886.8C505.2 879.333 520.4 873.333 520.933 873.333C522.4 873.333 496.933 890 484.666 896.933C478.8 900.4 470.133 905.867 465.333 909.333C460.533 912.667 452.533 918 447.333 920.933C413.333 940.533 387.866 954.133 358.4 968.533C339.866 977.6 319.6 988 313.333 991.6C307.066 995.333 287.066 1005.73 268.666 1014.93C233.6 1032.53 169.866 1066.4 153.866 1075.87C142.666 1082.67 110.533 1113.33 99.5997 1128C95.3331 1133.47 89.5997 1140.93 86.6664 1144.67C83.7331 1148.27 77.5997 1158.8 73.1997 1167.87C65.4664 1183.6 65.0664 1184.8 65.5997 1192.53C66.7997 1208 77.7331 1224 90.3997 1228.8C95.8664 1230.93 103.2 1231.2 151.2 1231.73C208.8 1232.27 218.533 1231.6 240 1226.27C246.533 1224.53 251.733 1223.47 251.466 1223.73C250.8 1224.27 160.533 1268.53 113.333 1291.47C90.5331 1302.53 77.5997 1309.6 73.8664 1312.93C67.7331 1318.53 58.9331 1326.53 51.3331 1332.93C46.5331 1337.07 46.2664 1337.47 47.1997 1343.6C49.0664 1357.2 60.7997 1375.6 70.2664 1379.6C75.5997 1381.73 156.666 1382.13 179.333 1380C206.533 1377.47 251.6 1365.47 296 1348.93C368.666 1322 437.733 1294.27 487.333 1272.27C590.8 1226.4 693.866 1170.93 786 1111.73C801.466 1101.87 823.333 1088.27 834.666 1081.47C846 1074.67 859.733 1065.73 865.066 1061.73C870.533 1057.73 875.066 1054.67 875.333 1054.93C876.133 1055.6 799.866 1118.4 779.333 1134.13C769.066 1141.87 753.866 1152.8 745.733 1158.27C737.466 1163.73 730.666 1168.53 730.666 1168.8C730.666 1169.2 733.466 1168 737.066 1166.13C747.066 1161.07 776.4 1148.4 780 1147.6C798.4 1143.33 694.133 1199.6 665.333 1209.47C660.8 1211.07 661.6 1210.53 692 1192.53C706.266 1184 718.933 1176.13 720 1175.07C721.066 1173.87 698.266 1184.93 669.333 1199.73C610.533 1229.6 588.133 1241.2 589.733 1241.33C590.266 1241.33 592.533 1240.4 594.533 1239.33C596.666 1238.27 609.066 1232.93 622.133 1227.47C635.333 1222 648.266 1216.53 651.066 1215.47C653.733 1214.27 656 1213.47 656 1213.87C656 1215.33 627.6 1230.8 600.666 1244C550.533 1268.53 428.933 1326.67 428.533 1326.27C428.133 1326 470.666 1303.2 530.666 1271.6C585.866 1242.53 584.266 1242.93 518.133 1274C480.133 1291.73 389.866 1336.8 318.666 1373.33C291.866 1387.07 264.266 1401.2 257.333 1404.8C250.4 1408.27 241.333 1413.33 237.466 1415.87C233.466 1418.4 225.2 1422.67 219.333 1425.47C213.333 1428.27 207.066 1431.73 205.2 1433.07C203.466 1434.53 199.866 1436.67 197.333 1438C194.8 1439.2 190.933 1442 188.666 1444C186.533 1445.87 181.733 1449.2 178.133 1451.2C169.733 1456.13 161.866 1464.13 160.8 1469.07C158.933 1477.33 170.4 1500.13 181.066 1509.47C185.6 1513.47 186.133 1513.6 195.2 1513.07C206 1512.27 211.733 1510.27 272.666 1484.93C294.8 1475.87 316 1467.33 319.866 1466C323.866 1464.67 340 1457.33 355.866 1449.73C395.733 1430.4 428 1416.13 450 1408.27C471.066 1400.67 517.333 1386.13 518.133 1386.93C518.4 1387.2 497.466 1397.6 471.6 1410C352.666 1467.07 259.6 1513.87 199.333 1547.07C164.133 1566.4 163.2 1567.07 160.533 1574.13C157.866 1581.2 159.2 1588.4 165.6 1600.4C171.466 1611.2 179.066 1617.87 190.266 1621.47C198.133 1624 203.066 1624.53 226.666 1624.93C251.333 1625.47 256.133 1625.2 276.133 1622.13C343.866 1611.47 372.4 1599.47 583.333 1494C726.8 1422.13 747.066 1411.33 777.6 1390.93C833.866 1353.33 961.6 1278.8 980.666 1272.53C986.533 1270.53 1000.4 1265.33 1011.33 1261.07C1036.67 1250.93 1073.07 1237.33 1074.67 1237.33C1076.13 1237.33 1069.73 1253.07 1063.87 1263.73L1059.33 1271.87L1030 1286.13C1013.87 1294 989.6 1305.87 976 1312.53C962.4 1319.2 946.533 1326.67 940.666 1329.2C916 1339.87 552.4 1517.07 539.066 1524.93C530.133 1530.4 526.933 1533.2 518.533 1543.07C511.2 1551.73 461.466 1584.27 431.333 1600.13C424 1604 413.466 1609.47 408 1612.27C402.533 1615.2 397.466 1618 396.933 1618.67C396.266 1619.2 408 1615.87 422.8 1611.2C437.733 1606.53 450 1602.93 450.4 1603.2C451.2 1604.13 436.4 1611.87 391.866 1634.13C368.666 1645.6 348.666 1655.87 347.466 1656.67C345.466 1658.13 345.866 1659.47 350.8 1671.47C361.733 1697.73 368.133 1706.8 375.733 1706.53C376.933 1706.53 388.4 1701.33 400.933 1694.93C449.866 1670.27 487.066 1652 487.6 1652.4C487.866 1652.67 480.666 1656.67 471.733 1661.2C462.666 1665.73 456.266 1669.07 457.333 1668.8C458.4 1668.4 472.533 1662.8 488.8 1656.13C525.066 1641.47 560.933 1629.07 594.933 1619.6C621.066 1612.13 630.666 1609.73 674.666 1599.87C702.133 1593.73 707.066 1592.13 712.4 1587.07C716.666 1582.8 717.2 1576 713.866 1566.13C712.133 1561.2 711.2 1560 709.466 1560.67C708.266 1561.2 702.533 1563.33 696.666 1565.47C680.133 1571.6 617.2 1598 598.666 1606.67C580.933 1614.93 501.2 1647.47 503.333 1645.6C505.466 1643.87 705.466 1544.93 705.866 1545.47C706 1545.73 707.466 1548.93 708.933 1552.67C710.666 1557.07 712.266 1559.2 713.6 1558.93C717.2 1558.4 788.266 1531.2 806 1523.6C815.6 1519.6 836.8 1509.73 853.333 1501.6C869.866 1493.6 937.333 1460.8 1003.33 1428.67C1182.8 1341.47 1186.67 1339.47 1226.67 1312.93C1262.8 1288.93 1286.67 1269.2 1319.33 1236.67C1356.4 1199.73 1385.33 1161.07 1403.33 1124.67C1418.13 1094.93 1420.4 1078.27 1412.8 1056C1408.93 1044.67 1403.73 1036.8 1397.2 1032.27C1393.33 1029.47 1391.6 1029.2 1385.2 1029.87C1373.07 1031.07 1326.4 1047.47 1292.4 1062.4C1285.73 1065.47 1274.93 1069.73 1268.4 1072C1257.6 1075.87 1226.4 1085.33 1224.67 1085.33C1224.27 1085.33 1230.13 1080 1237.6 1073.47C1263.47 1051.07 1277.87 1033.87 1288.27 1012.67C1293.07 1002.93 1293.47 1001.2 1293.07 993.333C1292 976.533 1279.87 955.067 1270 952.533C1265.07 951.333 1251.73 954.933 1234.27 962.133C1226 965.467 1212.13 970.933 1203.33 974.133C1194.53 977.467 1178.13 984.667 1166.8 990.133C1155.47 995.6 1146.13 999.867 1146 999.733C1145.73 999.467 1154.93 991.2 1166.4 981.333C1191.6 959.467 1249.73 907.467 1270.53 888.133C1297.33 863.2 1326.53 830 1337.33 812C1350.8 789.6 1363.47 744.533 1367.47 704C1369.33 685.067 1361.73 661.067 1350.53 650.4C1344.27 644.4 1341.07 644.133 1332.4 648.667C1328.8 650.533 1317.87 656 1308 660.8C1287.6 670.8 1287.6 671.333 1308.8 649.867C1316 642.667 1324 632.8 1328.4 625.733C1337.6 611.333 1365.33 555.733 1369.2 544.4C1376.27 523.333 1376 505.333 1368.53 480.4C1362.53 460.667 1357.73 450.667 1349.6 441.467L1343.2 434.133L1328.93 437.6C1321.07 439.467 1314.67 440.667 1314.67 440.267C1314.67 440 1318.67 435.467 1323.6 430.133C1342.13 410.267 1348.93 396.267 1370.67 332.4C1377.47 312.933 1382.67 289.6 1382.67 279.333C1382.67 259.2 1372.13 240.267 1355.73 231.2C1349.73 228 1347.33 227.333 1340 227.6C1331.6 227.733 1329.6 228.533 1264.67 260C1184.93 298.667 1175.6 302.933 1176.67 301.333C1177.07 300.533 1187.73 291.867 1200.13 281.867C1212.67 271.867 1230.13 256.267 1239.2 247.333C1248.13 238.4 1258.93 228.933 1263.07 226.267C1267.2 223.6 1272.8 219.333 1275.73 216.8C1278.53 214.267 1283.2 210.8 1286.13 209.067C1293.33 204.933 1313.87 182.133 1321.6 169.733C1329.73 156.667 1339.33 133.733 1341.33 122.933C1345.87 97.0666 1332.8 65.1999 1313.47 55.4666C1303.2 50.2666 1294.13 48.9332 1274.53 49.7332C1247.73 50.7999 1239.2 53.5999 1191.33 77.3332C1152 96.7999 1110.53 116.4 1109.87 115.733C1109.73 115.467 1110.53 112 1111.6 108C1113.2 102.533 1113.73 94.2666 1113.87 75.9999C1113.87 49.0666 1112.4 39.7332 1105.87 25.7332C1101.2 15.9999 1089.07 3.73324 1081.87 1.59991C1075.87 -0.133422 1044.67 -0.266756 1034.67 1.33324ZM1065.33 47.8666C1062.93 49.3332 1016.13 70.3999 996 79.1999C988.266 82.5332 983.333 84.2666 985.066 82.9332C986.666 81.7332 991.2 78.2666 995.066 75.1999C1002.4 69.3332 1014.67 63.9999 1044.67 53.4666C1062.67 47.1999 1070 45.1999 1065.33 47.8666ZM1348 281.867C1348 282.133 1347.07 282.8 1345.87 283.2C1344.8 283.6 1344.27 283.467 1344.67 282.667C1345.47 281.333 1348 280.8 1348 281.867ZM289.333 415.2C289.333 416.4 274 425.333 272 425.333C270.8 425.333 265.466 428.133 260 431.467C251.066 436.933 211.066 454.133 209.866 452.933C209.6 452.667 227.2 444 249.066 433.733C294.666 412 289.333 414.533 289.333 415.2ZM376.933 423.467C373.333 425.333 370.133 426.533 369.733 426.133C368.933 425.333 379.6 420.267 382 420.133C382.8 420.133 380.4 421.6 376.933 423.467ZM1041.33 429.733C1041.33 430.667 1039.07 432.533 1036.4 433.867L1031.33 436.133L1036 432.133C1041.47 427.467 1041.33 427.467 1041.33 429.733ZM523.333 431.867C521.466 433.733 492.133 446.133 487.333 447.067C483.733 447.867 483.6 447.733 486.266 446.4C491.466 443.867 522 430.933 523.333 430.8C524 430.667 524 431.067 523.333 431.867ZM362.266 452.8C361.866 453.2 360.666 453.333 359.733 452.933C358.666 452.533 359.066 452.133 360.533 452.133C362 452 362.8 452.4 362.266 452.8ZM624 471.333C624 472.133 606.4 481.067 592 487.6C575.6 495.067 582.933 490.667 603.733 480.4C626.4 469.467 624 470.533 624 471.333ZM1018.27 498.933C1005.07 520.667 1002.93 523.6 988 539.333C981.733 545.867 971.866 557.6 966 565.333C926.533 617.733 918.933 626.533 900.133 641.067C893.866 645.867 886.533 651.733 883.866 654.133C881.2 656.533 877.6 658.8 875.866 659.333C874.133 659.867 868.666 663.2 863.866 666.667C859.066 670.133 853.066 674.133 850.533 675.333C848 676.667 834.933 684.933 821.333 694C807.733 702.933 792.533 712.533 787.333 715.333C782.266 718.133 772.666 724 766.266 728.267C759.733 732.667 744.8 741.467 732.933 747.867C721.066 754.267 704.933 763.733 697.2 768.933C689.466 774 676.266 781.733 667.866 786C651.2 794.4 615.866 814.267 607.333 820C600 824.933 597.2 826.133 602 822.4C604.266 820.8 609.6 816.267 614.133 812.533C618.533 808.8 624.533 804.133 627.466 802.4C630.4 800.533 633.466 798 634.533 796.8C635.466 795.6 642.133 791.2 649.2 787.067C658.133 781.733 665.6 775.867 674 767.6C687.2 754.533 702.8 740.8 719.466 727.733C751.6 702.8 785.6 671.2 800.533 652.8C803.333 649.333 807.2 645.733 809.2 644.933C813.6 643.067 828.8 632.667 834 628C836.266 626 842.8 621.2 848.666 617.333C854.533 613.467 861.733 608 864.666 605.2C893.466 577.333 918.133 556.533 927.2 552.8C929.6 551.867 934 549.467 937.066 547.467C940.133 545.6 947.333 542.133 952.933 539.867C962.666 536 969.066 532.133 979.066 523.867C981.466 522 985.2 519.333 987.333 518.133C989.6 516.933 997.333 511.467 1004.67 506C1012 500.667 1018.4 496.133 1019.07 496.133C1019.6 496 1019.2 497.333 1018.27 498.933ZM473.333 517.733C473.333 518.533 446.533 541.867 434.133 552L422.266 561.733L398.8 562.8C386 563.467 375.333 563.733 374.933 563.467C374.4 562.933 370.666 564.667 316 590.667C275.6 609.867 233.066 629.467 232.533 628.933C232.266 628.667 233.466 626.4 235.333 623.733C240.666 615.867 255.466 605.867 278 594.8C303.2 582.4 321.333 575.067 392.666 548.133C422 537.067 451.733 525.733 458.666 522.8C471.2 517.6 473.333 516.933 473.333 517.733ZM637.333 530C637.333 530.8 608.4 545.333 607.066 545.2C606.266 545.2 635.6 529.733 637.066 529.467C637.2 529.333 637.333 529.6 637.333 530ZM282 538.133C267.2 551.733 243.066 567.067 211.333 582.8C177.466 599.6 137.733 614.267 134.533 611.067C130.666 607.2 173.733 584 253.333 547.2C272.8 538.133 288.933 530.8 289.333 530.8C289.733 530.8 286.4 534.133 282 538.133ZM597.2 549.867C596.933 550.133 595.2 551.067 593.333 551.867C590.133 553.333 590.133 553.333 592.533 551.467C594.666 549.733 599.066 548.267 597.2 549.867ZM102.666 556.667C102.666 557.467 95.1997 561.333 93.7331 561.333C93.1997 561.2 94.7997 560.133 97.3331 558.667C102.533 555.733 102.666 555.733 102.666 556.667ZM516 601.067C516 601.6 513.466 604.533 510.4 607.6C506.533 611.2 498.133 616.267 485.333 622.4L466 631.867L451.733 632.667C443.333 633.067 437.333 632.933 437.333 632.133C437.333 630.667 476.533 612.8 496 605.467C509.466 600.267 516 598.8 516 601.067ZM346 677.2C345.2 677.867 340.533 680.667 335.333 683.333C330.266 686.133 324.8 689.333 323.333 690.533C312.933 699.333 291.6 713.333 270 725.6C261.2 730.533 254.4 734.667 254.8 734.667C255.2 734.667 282.8 721.467 316 705.333C349.2 689.2 376.533 676.133 376.8 676.4C377.066 676.667 354.4 688.133 326.4 702C251.6 738.8 171.2 775.467 168 774.4C165.066 773.467 224.8 739.867 291.333 705.067C308.933 695.733 328.4 685.467 334.666 682.133C346.266 675.867 348.133 675.067 346 677.2ZM1314.13 721.467C1308.4 724.4 1303.47 726.533 1303.07 726.133C1302.27 725.333 1321.07 716 1323.33 716C1324 716.133 1320 718.533 1314.13 721.467ZM590.666 760.8C590.666 761.467 579.2 767.067 555.333 777.867C527.333 790.533 517.6 795.467 518.133 796.267C518.8 797.2 485.066 814.8 483.066 814.533C482.4 814.533 490.133 810.4 500 805.333C509.866 800.267 517.6 796.133 517.2 796.133C515.6 796 472.933 817.067 472.133 818.4C471.066 820.133 446.533 832.267 445.733 831.467C445.333 831.2 448.533 829.067 452.8 826.8C458.266 823.867 459.466 822.933 456.666 823.467C454.133 824 453.2 823.867 454 823.067C455.733 821.333 588.266 760.133 590.4 760C590.533 760 590.666 760.4 590.666 760.8ZM91.9997 764.667C91.9997 765.467 66.3997 777.467 65.7331 776.933C64.5331 775.6 71.3331 771.6 79.4664 768.533C84.3997 766.8 88.7997 765.067 89.0664 764.667C89.9997 763.867 91.9997 763.867 91.9997 764.667ZM951.466 777.2C950.266 779.067 930.933 793.6 925.466 796.8C922.8 798.267 916 802.8 910.4 806.8C904.8 810.8 893.066 818.933 884.4 825.067C875.733 831.067 866.533 837.733 864 839.6L859.333 843.2L862.666 839.6C864.533 837.733 870.533 832.667 876.133 828.4C881.6 824.133 890.266 817.467 895.2 813.467C900.133 809.6 906.533 805.067 909.333 803.467C912.266 802 920.933 796.267 928.8 790.933C936.533 785.733 943.333 781.333 943.733 781.333C944.266 781.333 946.133 780.133 948 778.667C951.733 775.733 952.533 775.467 951.466 777.2ZM589.333 826C589.333 827.067 514.4 864.267 513.733 863.6C513.2 863.067 587.2 825.333 588.666 825.333C589.066 825.333 589.333 825.6 589.333 826ZM424 842C424 843.2 321.2 892.4 320.533 891.6C320 891.2 421.333 841.6 423.066 841.467C423.6 841.333 424 841.6 424 842ZM608 847.2C608 847.467 607.066 848.133 605.866 848.533C604.8 848.933 604.266 848.8 604.666 848C605.466 846.667 608 846.133 608 847.2ZM596 853.333C592 855.467 588.133 857.2 587.333 857.2C586.666 857.2 589.333 855.467 593.333 853.333C597.333 851.2 601.333 849.467 602 849.467C602.8 849.467 600 851.2 596 853.333ZM584.666 858.667C584.266 859.333 583.066 860 582.266 860C581.333 860 581.466 859.467 582.666 858.667C585.2 857.067 585.733 857.067 584.666 858.667ZM1029.33 860.667C1029.33 861.467 1000.4 876 999.066 875.867C998.266 875.867 1027.6 860.4 1029.07 860.133C1029.2 860 1029.33 860.267 1029.33 860.667ZM553.333 873.867C553.333 874.133 552.4 874.8 551.2 875.2C550.133 875.6 549.6 875.467 550 874.667C550.8 873.333 553.333 872.8 553.333 873.867ZM548 876.533C548 876.8 547.066 877.467 545.866 877.867C544.8 878.267 544.266 878.133 544.666 877.333C545.466 876 548 875.467 548 876.533ZM541.333 880C540.266 880.667 538.8 881.333 538 881.333C537.333 881.333 537.6 880.667 538.666 880C539.733 879.333 541.333 878.667 542 878.667C542.8 878.667 542.4 879.333 541.333 880ZM535.333 882.667C534.933 883.333 533.733 884 532.933 884C532 884 532.133 883.467 533.333 882.667C535.866 881.067 536.4 881.067 535.333 882.667ZM298.666 897.867C298.666 899.067 284.4 908 276.933 911.333C272.8 913.333 269.333 915.067 269.333 915.333C269.333 915.733 270.266 915.6 271.333 915.2C272.4 914.667 273.333 914.8 273.333 915.2C273.333 916.667 257.2 923.733 252 924.667L247.333 925.467L250.666 922.8C253.2 920.8 296.666 897.6 298.4 897.333C298.533 897.333 298.666 897.6 298.666 897.867ZM476.533 984.267C475.866 985.2 474 987.2 472.266 988.533C470.533 990 463.333 998.4 456.4 1007.2C438.8 1029.47 432.266 1036 427.733 1036C425.733 1036 424 1035.6 424 1035.2C424 1032.53 447.2 1008.13 460.666 996.533C469.466 988.933 476.8 982.667 477.066 982.667C477.333 982.667 477.066 983.467 476.533 984.267ZM524.666 1169.33C524.266 1170 523.066 1170.67 522.266 1170.67C521.333 1170.67 521.466 1170.13 522.666 1169.33C525.2 1167.73 525.733 1167.73 524.666 1169.33ZM268 1228C259.6 1232.27 252.133 1235.87 251.333 1235.87C250.666 1235.87 256.933 1232.27 265.333 1228C273.733 1223.73 281.333 1220.13 282 1220.13C282.8 1220.13 276.4 1223.73 268 1228ZM244 1239.2C244 1239.47 243.066 1240.13 241.866 1240.53C240.8 1240.93 240.266 1240.8 240.666 1240C241.466 1238.67 244 1238.13 244 1239.2ZM801.333 1255.33C801.333 1255.6 796.4 1258.8 790.4 1262.4C758.133 1281.47 740.933 1290.13 715.733 1300C700.933 1305.87 688.666 1310.4 688.4 1310.27C688.133 1310 799.2 1255.33 801.066 1254.8C801.2 1254.67 801.333 1254.93 801.333 1255.33ZM624.666 1352C602.666 1362.93 584.133 1371.87 583.333 1371.87C582.666 1371.87 600 1362.93 622 1352C644 1341.07 662.666 1332.27 663.333 1332.27C664.133 1332.27 646.666 1341.2 624.666 1352ZM511.466 1339.33C512 1341.2 512 1343.07 511.733 1343.33C511.2 1343.87 472.933 1362.67 470 1363.87C469.333 1364.13 476.8 1358.8 486.666 1352C496.533 1345.2 505.6 1338.8 506.666 1337.87C509.466 1335.2 510.533 1335.6 511.466 1339.33ZM565.333 1380.53C565.333 1380.8 564.4 1381.47 563.2 1381.87C562.133 1382.27 561.6 1382.13 562 1381.33C562.8 1380 565.333 1379.47 565.333 1380.53ZM358.666 1528.67C355.333 1530.4 352.133 1531.87 351.333 1531.87C350.666 1531.87 352.666 1530.4 356 1528.67C359.333 1526.93 362.666 1525.47 363.333 1525.47C364.133 1525.47 362 1526.93 358.666 1528.67Z" fill="url(#paint0_linear_2127_3473)"/>
<defs>
<linearGradient id="paint0_linear_2127_3473" x1="1203.47" y1="1319.1" x2="1.59591" y2="656.84" gradientUnits="userSpaceOnUse">
<stop stop-color="var(--clr-grad-start)"/>
<stop offset="1" stop-color="var(--clr-grad-end)"/>
</linearGradient>
</defs>
</svg>