<svg width="600" height="600" viewBox="0 0 600 600" fill="none" xmlns="http://www.w3.org/2000/svg">
<path fill-rule="evenodd" clip-rule="evenodd" d="M471.691 193.311C430.496 202.024 359.112 215.346 305.091 215.346C251.068 215.346 179.685 202.024 138.491 193.311V299.636V405.961C148.488 403.847 160.263 401.462 173.136 399.061L232.297 318.592C237.78 311.134 248.922 311.134 254.405 318.592L273.473 344.528L323.95 266.482C329.358 258.123 341.584 258.123 346.992 266.482L432.154 398.157C446.938 400.858 460.441 403.581 471.691 405.961V193.311ZM143.242 164.262C125.808 160.558 109.091 173.77 109.091 191.594V299.636V407.678C109.091 425.502 125.808 438.714 143.242 435.011C184.248 426.3 253.891 413.329 305.091 413.329C356.29 413.329 425.935 426.3 466.94 435.011C484.374 438.714 501.091 425.502 501.091 407.678V191.594C501.091 173.77 484.374 160.558 466.94 164.262C425.935 172.974 356.29 185.943 305.091 185.943C253.891 185.943 184.248 172.974 143.242 164.262ZM199.251 289.835C210.076 289.835 218.851 281.059 218.851 270.233C218.851 259.407 210.076 250.63 199.251 250.63C188.426 250.63 179.651 259.407 179.651 270.233C179.651 281.059 188.426 289.835 199.251 289.835Z" fill="#010F33" fill-opacity="0.501961"/>
</svg>
