<svg width="600" height="600" viewBox="0 0 600 600" fill="none" xmlns="http://www.w3.org/2000/svg">
<path d="M190.909 189.139C190.909 175.059 202.331 163.636 216.409 163.636V189.139V398.153L285.525 348.795C289.934 345.607 295.937 345.607 300.347 348.795L369.409 398.153V189.139H216.409V163.636H369.409C383.487 163.636 394.909 175.059 394.909 189.139V422.911C394.909 427.693 392.253 432.05 388.003 434.228C383.753 436.406 378.653 436.035 374.775 433.272L292.909 374.829L211.044 433.272C207.165 436.035 202.065 436.406 197.815 434.228C193.565 432.05 190.909 427.693 190.909 422.911V189.139Z" fill="#010F33" fill-opacity="0.501961"/>
</svg>
