<svg width="600" height="600" viewBox="0 0 600 600" fill="none" xmlns="http://www.w3.org/2000/svg">
<path fill-rule="evenodd" clip-rule="evenodd" d="M231.551 319.065H226.54H185.5L215.525 196.191C216.189 193.475 218.617 191.565 221.406 191.565H388.594C391.383 191.565 393.811 193.475 394.475 196.191L424.5 319.065H383.457H378.332C369.672 319.065 361.671 323.701 357.348 331.225L343.925 354.582C343.817 354.77 343.617 354.886 343.4 354.886H305L266.609 355.488C266.387 355.491 266.182 355.373 266.073 355.18L252.622 331.378C248.322 323.768 240.274 319.065 231.551 319.065ZM156.825 319.065L152.169 338.116C151.13 340.712 150.437 343.485 150.15 346.378L150 346.993H150.095C150.032 347.795 150 348.605 150 349.422V395.565C150 417.696 167.891 435.636 189.961 435.636H420.039C442.109 435.636 460 417.696 460 395.565V349.422C460 348.605 459.968 347.795 459.904 346.993H460L459.85 346.378C459.563 343.485 458.87 340.712 457.831 338.116L453.175 319.065L421.526 189.545C417.809 174.334 404.212 163.636 388.594 163.636H221.406C205.788 163.636 192.191 174.334 188.474 189.545L156.825 319.065ZM267.082 385.842L305.237 385.243H343.4H343.74C354.377 385.243 364.215 379.648 369.68 370.537C369.842 370.274 370 370.008 370.154 369.739L381.831 349.422H429.727V395.565C429.727 400.93 425.39 405.279 420.039 405.279H189.961C184.611 405.279 180.273 400.93 180.273 395.565V349.422H228.023L239.734 370.146C245.303 380 255.79 386.018 267.082 385.842ZM369.18 252.279H240.215V229.208H369.18V252.279ZM381.895 299.636H227.5V271.708H381.895V299.636Z" fill="#010F33" fill-opacity="0.5"/>
</svg>
