<svg width="600" height="600" viewBox="0 0 600 600" fill="none" xmlns="http://www.w3.org/2000/svg">
<path fill-rule="evenodd" clip-rule="evenodd" d="M401.428 283.617V396.435C401.428 409.184 391.059 419.519 378.268 419.519H354.416V332.369C354.416 319.317 343.799 308.735 330.704 308.735H269.296C256.2 308.735 245.584 319.317 245.584 332.369V419.519H221.732C208.941 419.519 198.572 409.184 198.572 396.435V283.617C198.572 276.995 201.426 270.691 206.407 266.309L299.999 183.984L393.593 266.309C398.575 270.691 401.428 276.995 401.428 283.617ZM273.156 419.519V336.216H326.844V419.519H273.156ZM171 283.617C171 269.111 177.251 255.303 188.163 245.705L292.703 153.751C296.872 150.083 303.128 150.083 307.297 153.751L411.837 245.705C422.749 255.303 429 269.111 429 283.617V396.435C429 424.361 406.286 447 378.268 447H221.732C193.714 447 171 424.361 171 396.435V283.617Z" fill="#7B8294"/>
</svg>
