<svg width="600" height="600" viewBox="0 0 600 600" fill="none" xmlns="http://www.w3.org/2000/svg">
<path d="M300 164C290.596 164 282.998 171.597 282.998 181V190.509C244.479 196.619 214.992 229.981 214.992 270.25V287.994C214.992 312.112 206.756 335.541 191.72 354.347L183.804 364.281C180.722 368.106 180.138 373.366 182.263 377.775C184.388 382.184 188.851 385 193.739 385H406.261C411.149 385 415.612 382.184 417.737 377.775C419.862 373.366 419.278 368.106 416.196 364.281L408.28 354.4C393.244 335.541 385.008 312.112 385.008 287.994V270.25C385.008 229.981 355.521 196.619 317.002 190.509V181C317.002 171.597 309.404 164 300 164ZM300 215H304.25C334.747 215 359.506 239.756 359.506 270.25V287.994C359.506 313.441 366.891 338.25 380.599 359.5H219.401C233.109 338.25 240.494 313.441 240.494 287.994V270.25C240.494 239.756 265.253 215 295.75 215H300ZM334.003 402H300H265.997C265.997 411.031 269.556 419.691 275.932 426.066C282.308 432.441 290.968 436 300 436C309.032 436 317.692 432.441 324.068 426.066C330.444 419.691 334.003 411.031 334.003 402Z" fill="#010F33" fill-opacity="0.501961"/>
</svg>
