<svg width="600" height="600" viewBox="0 0 600 600" fill="none" xmlns="http://www.w3.org/2000/svg">
<path d="M248.636 359.145C262.714 359.145 274.136 370.567 274.136 384.646V393.146L312.652 364.245C317.061 360.951 322.427 359.145 327.952 359.145H401.636C406.311 359.145 410.136 355.32 410.136 350.644V197.638C410.136 192.963 406.311 189.137 401.636 189.137H197.636C192.961 189.137 189.136 192.963 189.136 197.638V350.644C189.136 355.32 192.961 359.145 197.636 359.145H248.636ZM274.136 425.023L274.03 425.129L271.321 427.148L262.236 433.948C259.686 435.861 256.233 436.179 253.311 434.745C250.389 433.31 248.636 430.388 248.636 427.148V415.832V412.431V412.272V410.147V384.646H223.136H197.636C178.883 384.646 163.636 369.398 163.636 350.644V197.638C163.636 178.884 178.883 163.636 197.636 163.636H401.636C420.389 163.636 435.636 178.884 435.636 197.638V350.644C435.636 369.398 420.389 384.646 401.636 384.646H327.952L274.136 425.023Z" fill="#010F33" fill-opacity="0.501961"/>
</svg>
