<svg width="600" height="600" viewBox="0 0 600 600" fill="none" xmlns="http://www.w3.org/2000/svg">
<path fill-rule="evenodd" clip-rule="evenodd" d="M199.677 163.636C211.015 163.636 221.889 168.114 229.906 176.084C237.923 184.055 242.427 194.865 242.427 206.136C242.427 217.408 237.923 228.218 229.906 236.188C221.889 244.159 211.015 248.636 199.677 248.636C188.339 248.636 177.466 244.159 169.449 236.188C161.431 228.218 156.927 217.408 156.927 206.136C156.927 194.865 161.431 184.055 169.449 176.084C177.466 168.114 188.339 163.636 199.677 163.636ZM396.327 163.636C407.666 163.636 418.539 168.114 426.555 176.084C434.574 184.055 439.077 194.865 439.077 206.136C439.077 217.408 434.574 228.218 426.555 236.188C418.539 244.159 407.666 248.636 396.327 248.636C384.989 248.636 374.116 244.159 366.099 236.188C358.081 228.218 353.577 217.408 353.577 206.136C353.577 194.865 358.081 184.055 366.099 176.084C374.116 168.114 384.989 163.636 396.327 163.636ZM122.727 322.321C122.727 291.03 148.27 265.636 179.745 265.636H202.563C211.059 265.636 219.129 267.496 226.396 270.789C225.701 274.615 225.381 278.599 225.381 282.636C225.381 302.93 234.358 321.152 248.519 333.636H248.145H134.109C127.857 333.636 122.727 328.536 122.727 322.321ZM339.31 333.636H338.936C353.151 321.152 362.073 302.93 362.073 282.636C362.073 278.599 361.701 274.668 361.059 270.789C368.326 267.443 376.395 265.636 384.892 265.636H407.71C439.184 265.636 464.727 291.03 464.727 322.321C464.727 328.589 459.597 333.636 453.345 333.636H339.31ZM293.727 308.928C307.358 308.928 319.123 297.601 319.123 282.742C319.123 267.883 307.358 256.556 293.727 256.556C280.096 256.556 268.331 267.883 268.331 282.742C268.331 297.601 280.096 308.928 293.727 308.928ZM293.727 334.27C321.78 334.27 344.519 311.2 344.519 282.742C344.519 254.284 321.78 231.214 293.727 231.214C265.676 231.214 242.935 254.284 242.935 282.742C242.935 311.2 265.676 334.27 293.727 334.27ZM261.858 376.506H327.291C348.165 376.506 365.668 390.907 370.367 410.295H218.78C223.48 390.907 240.984 376.506 261.858 376.506ZM192.143 420.729C192.143 382.309 223.355 351.164 261.858 351.164H327.291C365.793 351.164 397.005 382.309 397.005 420.729C397.005 428.963 390.317 435.636 382.065 435.636H207.082C198.831 435.636 192.143 428.963 192.143 420.729Z" fill="#010F33" fill-opacity="0.501961"/>
</svg>
