<svg width="600" height="600" viewBox="0 0 600 600" fill="none" xmlns="http://www.w3.org/2000/svg">
<path fill-rule="evenodd" clip-rule="evenodd" d="M401.917 334.277C404.356 335.685 405.194 338.806 403.784 341.245L387.629 369.215C386.219 371.655 383.099 372.49 380.66 371.082L379.902 370.645C353.829 355.598 321.241 374.411 321.236 404.513L321.235 405.386C321.235 408.205 318.952 410.486 316.135 410.488L283.831 410.493C281.013 410.493 278.728 408.21 278.728 405.39V404.55C278.734 374.44 246.135 355.617 220.056 370.674L219.306 371.108C216.866 372.515 213.745 371.679 212.336 369.239L196.198 341.29C194.79 338.852 195.626 335.731 198.066 334.321L198.816 333.889C224.895 318.834 224.892 281.195 198.811 266.144L198.083 265.724C195.642 264.315 194.805 261.195 196.215 258.754L212.371 230.785C213.78 228.345 216.9 227.51 219.339 228.918L220.097 229.355C246.171 244.401 278.758 225.589 278.763 195.487L278.764 194.613C278.764 191.796 281.048 189.513 283.865 189.512L316.168 189.507C318.986 189.506 321.271 191.791 321.271 194.609V195.45C321.266 225.56 353.864 244.382 379.943 229.327L380.694 228.894C383.133 227.485 386.255 228.321 387.663 230.761L403.802 258.71C405.209 261.15 404.373 264.27 401.934 265.678L401.183 266.112C375.104 281.167 375.109 318.805 401.19 333.856L401.917 334.277ZM253.254 194.608C253.257 177.708 266.958 164.008 283.86 164.005L316.164 164C333.074 163.997 346.785 177.705 346.781 194.613V195.454C346.779 205.927 358.117 212.474 367.188 207.237L367.939 206.804C382.579 198.352 401.302 203.368 409.756 218.007L425.893 245.956C434.346 260.596 429.329 279.316 414.689 287.768L413.938 288.201C404.867 293.438 404.869 306.529 413.94 311.765L414.667 312.184C429.316 320.636 434.333 339.362 425.874 354.004L409.718 381.972C401.265 396.608 382.548 401.623 367.91 393.174L367.152 392.737C358.081 387.502 346.747 394.046 346.745 404.518V405.391C346.742 422.291 333.041 435.992 316.139 435.995L283.835 436C266.925 436.003 253.216 422.295 253.218 405.386L253.219 404.547C253.22 394.073 241.882 387.526 232.811 392.762L232.061 393.196C217.419 401.65 198.698 396.633 190.244 381.993L174.106 354.043C165.653 339.404 170.67 320.685 185.311 312.232L186.061 311.799C195.132 306.563 195.131 293.471 186.059 288.236L185.332 287.816C170.685 279.364 165.667 260.639 174.125 245.997L190.281 218.027C198.735 203.393 217.451 198.378 232.091 206.826L232.848 207.263C241.917 212.497 253.252 205.953 253.254 195.483L253.254 194.608ZM328 300C328 315.464 315.464 328 300 328C284.536 328 272 315.464 272 300C272 284.536 284.536 272 300 272C315.464 272 328 284.536 328 300ZM352 300C352 328.719 328.719 352 300 352C271.281 352 248 328.719 248 300C248 271.281 271.281 248 300 248C328.719 248 352 271.281 352 300Z" fill="#010F33" fill-opacity="0.501961"/>
</svg>
