<svg width="794" height="225" viewBox="0 0 794 225" fill="none" xmlns="http://www.w3.org/2000/svg">
<path d="M41.7602 1.10795C25.5499 7.89335 7.72942 27.063 2.10112 51.125C-5.02668 81.6124 24.6354 94.5046 27.0683 90.2774C29.9318 85.3104 21.7532 83.6307 20.0697 67.8124C17.8939 47.3818 27.3921 24.5528 39.3459 14.5361C41.5679 12.6751 41.4622 15.2653 41.4622 20.0564C41.4622 28.624 40.9888 105.536 40.9888 121.587C40.9888 143.307 40.0917 150.166 38.4805 156.943C36.848 163.811 34.2235 168.452 36.2122 170.24C38.4341 172.239 47.9208 167.483 53.4128 159.818C59.9985 150.625 62.3038 139.584 62.7177 127.595C63.2176 113.141 63.1963 90.2072 63.2176 77.1257C63.2376 65.128 63.4197 29.9962 63.0073 8.87615C62.9062 3.69585 48.5394 -1.73905 41.7594 1.10165M617.387 102.755C616.864 114.047 614.365 122.873 611.263 129.098C605.257 141.15 592.795 144.892 587.504 127.567C584.621 118.123 584.486 102.351 586.559 89.1719C588.67 75.7464 594.562 65.607 604.319 66.5214C613.942 67.4253 618.447 79.8261 617.387 102.755ZM455.151 172.811C455.021 191.573 452.068 208.023 445.736 212.801C436.755 219.575 424.684 214.493 427.183 200.803C429.395 188.688 439.854 176.316 455.177 161.198C455.177 161.198 455.208 164.646 455.151 172.811ZM452.698 102.646C452.149 112.93 449.483 123.262 446.574 129.099C440.57 141.151 428.018 144.919 422.816 127.568C419.26 115.714 420.111 100.371 421.871 90.7035C424.155 78.1605 429.69 66.5241 439.63 66.5241C449.295 66.5241 454.061 77.1266 452.698 102.646ZM358.715 102.488C358.126 113.381 356.001 122.486 352.591 129.099C346.422 141.068 334.216 144.864 328.833 127.568C324.952 115.097 326.273 98.0914 327.888 88.9051C330.283 75.2731 336.282 65.6083 345.647 66.5241C355.267 67.4639 359.943 79.8261 358.715 102.488ZM789.419 115.211C787.067 115.211 785.994 117.635 785.106 121.715C782.027 135.902 778.79 139.105 774.616 139.105C769.953 139.105 765.763 132.08 764.686 118.018C763.84 106.961 763.976 86.6045 765.058 66.3549C765.28 62.1944 764.132 58.0779 752.973 54.024C748.171 52.2803 741.191 49.7128 737.716 58.1019C727.896 81.8026 724.054 100.619 723.15 108.263C723.103 108.659 722.618 108.739 722.533 107.815C721.957 101.693 720.67 90.5676 720.51 67.1936C720.479 62.633 719.512 58.7511 714.479 55.573C711.213 53.5108 701.295 49.8635 697.723 54.2026C694.629 57.7513 691.046 67.3014 687.323 78.6219C684.297 87.8228 682.189 94.0471 682.189 94.0471C682.189 94.0471 682.229 69.2211 682.265 59.8042C682.281 56.2516 679.844 55.0678 679.109 54.8532C675.802 53.8933 669.286 52.2897 666.52 52.2897C663.107 52.2897 662.271 54.1973 662.271 56.9768C662.271 57.3407 661.733 89.6625 661.733 112.263C661.733 113.245 661.733 114.316 661.743 115.454C659.855 125.842 653.734 139.943 647.076 139.943C640.411 139.943 637.266 134.047 637.266 107.104C637.266 91.3854 637.738 84.5507 637.97 73.1823C638.105 66.6342 638.365 61.6057 638.35 60.4646C638.301 56.9653 632.25 55.2016 629.434 54.5498C626.606 53.8925 624.147 53.6379 622.228 53.7472C619.511 53.9005 617.589 55.6829 617.589 58.1344C617.589 59.4488 617.604 61.9483 617.604 61.9483C614.104 56.4494 608.476 52.6221 604.732 51.5131C594.646 48.5177 584.121 51.1718 576.182 62.2803C569.873 71.1066 566.07 81.1033 564.573 95.466C563.478 105.966 563.835 116.614 565.78 125.619C563.43 135.78 559.067 139.943 554.289 139.943C547.353 139.943 542.325 128.621 542.909 109.042C543.294 96.1637 545.871 87.1261 548.688 74.0513C549.889 68.4777 548.913 65.5596 546.465 62.7628C544.221 60.198 539.438 58.8876 532.561 60.4993C527.664 61.6484 520.661 62.8841 514.254 63.8333C514.254 63.8333 514.641 62.2909 514.958 59.5715C516.625 45.3103 501.128 46.4674 496.183 51.0224C493.232 53.7419 491.223 56.9493 490.46 62.7162C489.251 71.8678 496.715 76.1843 496.715 76.1843C494.266 87.3941 488.263 102.038 482.066 112.625C478.747 118.298 476.207 122.501 472.929 126.969C472.917 125.305 472.908 123.642 472.902 121.986C472.827 98.4182 473.141 79.8698 473.279 73.1844C473.414 66.6364 473.676 61.7413 473.662 60.6002C473.625 58.0407 472.13 57.0742 469.021 55.8504C466.273 54.768 463.022 54.0188 459.651 53.7575C455.396 53.4256 452.832 55.6825 452.899 58.3513C452.912 58.8552 452.912 61.9493 452.912 61.9493C449.413 56.4503 443.784 52.6231 440.04 51.514C429.954 48.5199 419.429 51.1741 411.491 62.2812C405.183 71.1075 401.051 83.4932 399.881 95.3576C398.79 106.415 398.992 115.812 400.478 123.728C398.874 131.655 394.263 139.944 389.05 139.944C382.384 139.944 378.592 134.048 378.592 107.105C378.592 91.3863 379.064 84.5516 379.296 73.1844C379.43 66.6364 379.69 61.6067 379.675 60.4669C379.626 56.9676 373.575 55.2039 370.76 54.5507C367.814 53.8695 365.27 53.6189 363.317 53.7628C360.74 53.9548 358.929 56.2624 358.929 57.9834V61.9493C355.429 56.4503 349.801 52.6231 346.057 51.514C335.971 48.5199 325.505 51.2168 317.507 62.2812C312.292 69.4958 308.071 77.4943 305.898 95.2002C305.27 100.317 304.992 105.108 305.028 109.587C302.949 122.305 293.764 136.963 286.251 136.963C281.854 136.963 277.667 128.435 277.667 110.261C277.667 86.0527 279.165 51.5846 279.419 48.2627C279.419 48.2627 288.912 48.1014 290.75 48.08C295.485 48.028 299.774 48.1399 306.08 47.8173C309.244 47.656 312.291 36.3035 309.026 34.8985C307.547 34.2626 297.089 33.7055 292.943 33.6175C289.457 33.5385 279.752 32.8203 279.752 32.8203C279.752 32.8203 280.623 9.94195 280.825 7.52515C280.997 5.51085 278.391 4.47375 276.897 3.84445C273.263 2.30745 270.011 1.57155 266.157 0.777052C260.833 -0.321348 258.417 0.753055 257.946 5.24685C257.235 12.067 256.867 32.0431 256.867 32.0431C252.96 32.0431 239.613 31.2793 235.705 31.2793C232.073 31.2793 228.154 46.8963 233.174 47.0882C238.951 47.3122 249.017 47.5055 255.69 47.7068C255.69 47.7068 255.393 82.7426 255.393 93.5592C255.393 94.71 255.403 95.8182 255.405 96.8935C251.732 116.037 238.796 126.377 238.796 126.377C241.574 113.713 235.899 104.203 225.677 96.1524C221.911 93.1858 214.477 87.5696 206.158 81.4152C206.158 81.4152 210.976 76.6667 215.248 67.1139C218.276 60.3472 218.407 52.6033 210.976 50.8957C198.698 48.0723 188.575 57.0891 185.555 66.7153C183.216 74.1725 184.464 79.7062 189.047 85.4544C189.381 85.8744 189.744 86.3036 190.119 86.7355C187.347 92.0774 183.54 99.2693 180.315 104.847C171.365 120.332 164.604 132.58 159.494 132.58C155.409 132.58 155.464 120.145 155.464 108.502C155.464 98.4649 156.205 83.3747 156.797 67.7511C156.993 62.5841 154.409 59.6406 150.078 56.9745C147.447 55.3548 141.831 52.1701 138.578 52.1701C133.709 52.1701 119.663 52.8326 106.391 91.2239C104.718 96.0628 101.432 104.88 101.432 104.88L101.715 58.7128C101.715 57.6304 101.139 56.5839 99.8185 55.868C97.582 54.6536 91.6086 52.1701 86.2971 52.1701C83.7664 52.1701 82.5035 53.3472 82.5035 55.6934L82.0402 127.922C82.0402 133.41 82.1833 139.813 82.7259 142.613C83.2665 145.416 84.1423 147.697 85.227 149.054C86.3101 150.409 87.563 151.442 89.6287 151.868C91.5513 152.264 102.079 153.616 102.626 149.593C103.282 144.771 103.307 139.556 108.835 120.106C117.441 89.8256 128.662 75.051 133.937 69.804C134.859 68.8869 135.912 68.8322 135.862 70.3332C135.636 76.972 134.844 93.5608 134.311 107.654C132.882 145.37 139.744 152.36 149.548 152.36C157.05 152.36 167.624 144.907 178.959 126.04C186.025 114.282 192.887 102.754 197.816 94.4446C201.252 97.6248 205.107 101.048 208.96 104.704C217.913 113.201 220.852 121.276 218.902 128.935C217.41 134.791 211.792 140.826 201.794 134.96C198.88 133.249 197.636 131.927 194.706 129.998C193.132 128.961 190.728 128.652 189.287 129.737C185.544 132.56 183.403 136.15 182.181 140.594C180.992 144.919 185.323 147.205 189.813 149.205C193.679 150.926 201.988 152.485 207.287 152.663C227.933 153.353 244.473 142.694 255.987 115.198C258.048 138.944 266.819 152.381 282.059 152.381C292.248 152.381 302.463 139.212 306.93 126.256C308.213 131.537 310.111 136.129 312.562 140.013C324.305 158.619 347.086 154.614 358.53 138.815C362.068 133.933 362.606 132.179 362.606 132.179C364.275 147.097 376.289 152.31 383.167 152.31C390.871 152.31 398.826 148.668 404.401 136.117C405.054 137.479 405.767 138.78 406.546 140.013C418.289 158.618 441.07 154.614 452.513 138.815C453.053 138.073 453.521 137.401 453.93 136.798L454.266 146.597C454.266 146.597 447.738 152.585 443.73 156.259C426.094 172.44 412.683 184.716 411.697 199.012C410.43 217.241 425.214 224.015 436.399 224.903C448.276 225.846 458.448 219.284 464.7 210.102C470.199 202.02 473.798 184.624 473.534 167.444C473.429 160.564 473.255 151.816 473.119 142.439C479.318 135.24 486.302 126.142 492.733 115.492C499.741 103.886 507.252 88.3001 511.097 76.1704C511.097 76.1704 517.623 76.2264 524.587 75.7705C526.814 75.6252 527.454 76.0797 527.042 77.7128C526.545 79.6857 518.244 111.704 525.82 133.033C531.006 147.634 542.695 152.332 549.626 152.332C557.739 152.332 565.5 146.205 569.66 137.107C570.161 138.121 570.685 139.103 571.257 140.009C583 158.614 605.701 154.586 617.224 138.811C619.824 135.251 621.3 132.174 621.3 132.174C623.773 147.614 635.78 152.384 642.657 152.384C649.821 152.384 656.62 149.447 662.136 136.395C662.367 142.142 662.73 146.841 663.303 148.322C663.652 149.228 665.688 150.366 667.169 150.915C673.722 153.345 680.406 152.196 682.879 151.696C684.592 151.349 685.928 149.975 686.11 146.426C686.59 137.108 686.296 121.452 689.121 109.817C693.862 90.2903 698.285 82.7159 700.384 78.966C701.558 76.8649 702.883 76.5184 702.931 78.742C703.03 83.2411 703.254 96.4533 705.091 114.204C706.44 127.26 708.242 134.976 709.627 137.419C713.58 144.403 718.462 144.733 722.437 144.733C724.966 144.733 730.254 144.035 729.781 139.59C729.55 137.424 729.954 124.036 734.629 104.798C737.682 92.2354 742.772 80.884 744.607 76.7342C745.284 75.2038 745.599 76.4102 745.588 76.6452C745.202 85.2969 744.334 113.596 747.859 129.073C752.636 150.039 766.458 152.385 771.274 152.385C781.556 152.385 789.965 144.564 792.798 123.984C793.48 119.032 792.47 115.207 789.443 115.207" fill="#262626"/>
</svg>
