<svg width="48" height="48" viewBox="0 0 48 48" fill="none" xmlns="http://www.w3.org/2000/svg">
<path fill-rule="evenodd" clip-rule="evenodd" d="M3 6C4.65686 6 6 4.65674 6 3C6 1.34326 4.65686 0 3 0C1.34314 0 0 1.34326 0 3C0 4.65674 1.34314 6 3 6ZM17 6C18.6569 6 20 4.65674 20 3C20 1.34326 18.6569 0 17 0C15.3431 0 14 1.34326 14 3C14 4.65674 15.3431 6 17 6ZM34 3C34 4.65674 32.6569 6 31 6C29.3431 6 28 4.65674 28 3C28 1.34326 29.3431 0 31 0C32.6569 0 34 1.34326 34 3ZM45 6C46.6569 6 48 4.65674 48 3C48 1.34326 46.6569 0 45 0C43.3431 0 42 1.34326 42 3C42 4.65674 43.3431 6 45 6ZM6 17C6 18.6567 4.65686 20 3 20C1.34314 20 0 18.6567 0 17C0 15.3433 1.34314 14 3 14C4.65686 14 6 15.3433 6 17ZM17 20C18.6569 20 20 18.6567 20 17C20 15.3433 18.6569 14 17 14C15.3431 14 14 15.3433 14 17C14 18.6567 15.3431 20 17 20ZM34 17C34 18.6567 32.6569 20 31 20C29.3431 20 28 18.6567 28 17C28 15.3433 29.3431 14 31 14C32.6569 14 34 15.3433 34 17ZM45 20C46.6569 20 48 18.6567 48 17C48 15.3433 46.6569 14 45 14C43.3431 14 42 15.3433 42 17C42 18.6567 43.3431 20 45 20ZM6 31C6 32.6567 4.65686 34 3 34C1.34314 34 0 32.6567 0 31C0 29.3433 1.34314 28 3 28C4.65686 28 6 29.3433 6 31ZM3 48C4.65686 48 6 46.6567 6 45C6 43.3433 4.65686 42 3 42C1.34314 42 0 43.3433 0 45C0 46.6567 1.34314 48 3 48ZM20 45C20 46.6567 18.6569 48 17 48C15.3431 48 14 46.6567 14 45C14 43.3433 15.3431 42 17 42C18.6569 42 20 43.3433 20 45ZM17 34C18.6569 34 20 32.6567 20 31C20 29.3433 18.6569 28 17 28C15.3431 28 14 29.3433 14 31C14 32.6567 15.3431 34 17 34ZM34 31C34 32.6567 32.6569 34 31 34C29.3431 34 28 32.6567 28 31C28 29.3433 29.3431 28 31 28C32.6569 28 34 29.3433 34 31ZM31 48C32.6569 48 34 46.6567 34 45C34 43.3433 32.6569 42 31 42C29.3431 42 28 43.3433 28 45C28 46.6567 29.3431 48 31 48ZM48 45C48 46.6567 46.6569 48 45 48C43.3431 48 42 46.6567 42 45C42 43.3433 43.3431 42 45 42C46.6569 42 48 43.3433 48 45ZM45 34C46.6569 34 48 32.6567 48 31C48 29.3433 46.6569 28 45 28C43.3431 28 42 29.3433 42 31C42 32.6567 43.3431 34 45 34Z" fill="#230133" fill-opacity="0.05"/>
</svg>
