<svg width="1280" height="1080" viewBox="0 0 1280 1080" fill="none" xmlns="http://www.w3.org/2000/svg">
<path d="M228.847 352.5L242 327.32L255.153 352.5H228.847Z" stroke="#EE2F51" stroke-width="4"/>
<path d="M963.153 217.5L950 242.68L936.847 217.5H963.153Z" stroke="#EECE2F" stroke-width="4"/>
<path fill-rule="evenodd" clip-rule="evenodd" d="M501.732 957C504.622 957 507.386 958.545 509.493 961.332C511.602 964.12 512.964 968.062 512.964 972.5H516.964C516.964 967.273 515.365 962.465 512.684 958.919C510.002 955.373 506.15 953 501.732 953C497.314 953 493.462 955.373 490.78 958.919C489.896 960.088 489.13 961.394 488.5 962.806C487.87 961.394 487.104 960.088 486.22 958.919C483.539 955.373 479.686 953 475.268 953C470.85 953 466.998 955.373 464.316 958.919C461.635 962.465 460.036 967.273 460.036 972.5H464.036C464.036 968.062 465.398 964.12 467.507 961.332C469.614 958.545 472.378 957 475.268 957C478.159 957 480.922 958.545 483.03 961.332C485.113 964.087 486.468 967.967 486.5 972.339C486.5 972.393 486.499 972.446 486.499 972.5H486.501H490.499H490.501C490.501 972.446 490.5 972.393 490.5 972.339C490.533 967.967 491.887 964.087 493.97 961.332C496.078 958.545 498.842 957 501.732 957Z" fill="#EE2F51"/>
<path d="M1262.37 124.806C1257.53 133.908 1246.53 137.525 1237.8 132.884C1229.08 128.244 1225.92 117.103 1230.76 108" stroke="#1945B5" stroke-width="4"/>
<path d="M1261.28 948.791C1263.19 958.603 1256.87 968.087 1247.16 969.973C1237.46 971.859 1228.05 965.434 1226.14 955.621" stroke="#EECE2F" stroke-width="4"/>
<path fill-rule="evenodd" clip-rule="evenodd" d="M1101.62 506.078C1098.94 504.995 1096.96 502.527 1096.05 499.154C1095.14 495.778 1095.35 491.613 1097.01 487.498L1093.3 486C1091.35 490.847 1091.03 495.904 1092.19 500.195C1093.34 504.488 1096.03 508.131 1100.12 509.786C1104.22 511.441 1108.68 510.684 1112.5 508.401C1113.75 507.648 1114.95 506.724 1116.07 505.651C1116.12 507.197 1116.34 508.694 1116.72 510.109C1117.88 514.401 1120.56 518.045 1124.66 519.7C1128.76 521.355 1133.22 520.598 1137.03 518.314C1140.85 516.031 1144.13 512.172 1146.09 507.326L1142.38 505.827C1140.72 509.942 1137.98 513.086 1134.98 514.882C1131.98 516.677 1128.84 517.074 1126.16 515.991C1123.48 514.908 1121.49 512.441 1120.58 509.067C1119.69 505.733 1119.88 501.627 1121.49 497.561C1121.51 497.512 1121.53 497.462 1121.55 497.412L1121.55 497.412L1117.84 495.914L1117.84 495.914C1117.82 495.963 1117.8 496.013 1117.78 496.063C1116.11 500.104 1113.4 503.195 1110.44 504.969C1107.44 506.763 1104.3 507.16 1101.62 506.078Z" fill="#19B54D"/>
<path d="M42.0408 108C50.1276 113.876 51.9732 125.121 46.163 133.119C40.3527 141.116 29.0869 142.836 21 136.96" stroke="#EECE2F" stroke-width="4"/>
<path d="M60 737.179C65.4442 728.796 76.5781 726.364 84.8684 731.748C93.1586 737.132 95.4658 748.292 90.0216 756.676" stroke="#19B54D" stroke-width="4"/>
<line x1="579.732" y1="107.999" x2="564.732" y2="133.999" stroke="#1945B5" stroke-width="4"/>
<line x1="975.192" y1="862.96" x2="955.491" y2="840.313" stroke="#1945B5" stroke-width="4"/>
<line x1="21.2504" y1="972.289" x2="35.7936" y2="946.031" stroke="#EECE2F" stroke-width="4"/>
</svg>
